<svg width="119" height="42" viewBox="0 0 119 42" fill="none" xmlns="http://www.w3.org/2000/svg">
<path d="M1 35.1203V28.5612H14.2539V1.88746C14.2539 1.88746 21.7447 -0.10878 25.9711 1.88746C28.6455 3.15068 30.4172 4.2629 31.9257 6.91611C35.6549 13.4752 34.0292 19.6238 29.4286 23.7511C25.1868 27.5566 15.5985 23.7511 15.5985 23.7511" stroke="#FFF1D4" stroke-width="2" stroke-linecap="round"/>
<path d="M19.8242 25.063L28.5124 39.9303L34.9989 32.4966" stroke="#FFF1D4" stroke-width="2" stroke-linecap="round"/>
<path d="M46.14 13.3821C48.3122 13.3821 50.3911 14.6699 51.9701 16.9807C53.5457 19.2866 54.5521 22.5279 54.5521 26.1565C54.5521 29.7851 53.5457 33.0265 51.9701 35.3323C50.3911 37.6429 48.3121 38.9299 46.14 38.9299C43.9679 38.9299 41.8889 37.6429 40.3099 35.3323C38.7343 33.0265 37.728 29.7851 37.7279 26.1565C37.7279 22.5279 38.7344 19.2866 40.3099 16.9807C41.8889 14.67 43.9678 13.3821 46.14 13.3821Z" stroke="#FFF1D4" stroke-width="2"/>
<path d="M58.5826 13.2566C58.5826 13.2566 57.8145 25.063 58.5826 30.7475C59.3508 36.4321 62.0399 38.3998 63.1925 39.0557C64.3451 39.7116 69.3391 40.8048 71.8364 39.0557C74.3336 37.3066 75.6782 35.1203 76.4465 30.7475C77.2149 26.3748 76.4465 13.2566 76.4465 13.2566" stroke="#FFF1D4" stroke-width="2" stroke-linecap="round"/>
<path d="M81.2331 1.01294C81.2331 1.01294 81.041 32.278 81.2331 33.5898C81.4251 34.9016 83.7302 37.3067 84.4985 37.9626C85.2668 38.6185 86.9685 39.7421 88.7244 39.7117C90.4099 39.6825 91.3963 39.0933 92.7582 37.9626C94.2732 36.7046 94.9685 35.5831 95.6394 33.5898C96.05 32.3702 96.1825 31.6158 96.2157 30.3103" stroke="#FFF1D4" stroke-width="2" stroke-linecap="round"/>
<path d="M81.7241 13.6938H96.5146" stroke="#FFF1D4" stroke-width="2" stroke-linecap="round"/>
<path d="M117.999 31.0996C117.999 31.0996 116.885 35.0117 115.31 36.7842C113.901 38.37 112.842 39.2216 110.892 39.6265C109.107 39.9971 107.96 39.7569 106.282 38.9706C105.032 38.3845 104.37 37.8581 103.401 36.7842C101.814 35.0251 101.316 33.5252 100.712 31.0996C100.238 29.1996 100.238 26.071 100.238 26.071M100.238 26.071C100.238 26.071 100.181 24.7462 100.238 24.3219C100.712 20.8237 103.017 17.1069 103.017 17.1069C103.017 17.1069 104.361 14.8846 106.282 14.2646C107.653 13.822 109.496 13.5009 110.892 13.8273C112.798 14.273 113.875 14.9545 115.31 16.451C116.27 17.4527 117.115 18.8899 117.615 21.0423C118.037 22.8583 117.999 26.071 117.999 26.071H100.238Z" stroke="#FFF1D4" stroke-width="2" stroke-linecap="round"/>
</svg>
