<svg width="10" height="13" viewBox="0 0 10 13" fill="none" xmlns="http://www.w3.org/2000/svg">
<path fill-rule="evenodd" clip-rule="evenodd" d="M3.81944 0C3.35921 0 2.98611 0.373095 2.98611 0.833333C2.98611 1.06345 2.79956 1.25 2.56944 1.25H2.5L0.625 1.25C0.279822 1.25 0 1.52982 0 1.875C0 2.22018 0.279822 2.5 0.625 2.5L2.5 2.5H2.56944L7.42965 2.5C7.42995 2.5 7.43025 2.5 7.43056 2.5H7.5L9.375 2.5C9.72018 2.5 10 2.22018 10 1.875C10 1.52982 9.72018 1.25 9.375 1.25H7.4301C7.20019 1.24976 7.01389 1.0633 7.01389 0.833334C7.01389 0.373096 6.64079 0 6.18056 0H3.81944Z" fill="white"/>
<path fill-rule="evenodd" clip-rule="evenodd" d="M1.25 3.75C1.07522 3.75 0.908422 3.82319 0.790076 3.95181C0.671729 4.08043 0.612646 4.25272 0.627161 4.4269L1.10889 10.2076C1.21686 11.5033 2.30003 12.5 3.60025 12.5H6.39975C7.69997 12.5 8.78314 11.5033 8.89112 10.2076L9.37284 4.4269C9.38736 4.25272 9.32828 4.08043 9.20993 3.95181C9.09158 3.82319 8.92478 3.75 8.75 3.75H1.25Z" fill="white"/>
</svg>
